{
    "asset" : {
        "generator" : "Khronos glTF Blender I/O v1.6.16",
        "version" : "2.0"
    },
    "scene" : 0,
    "scenes" : [
        {
            "name" : "Scene",
            "nodes" : [
                0,
                1,
                2
            ]
        }
    ],
    "nodes" : [
        {
            "mesh" : 0,
            "name" : "Cube",
            "rotation" : [
                -0.013831007294356823,
                0.0013829654781147838,
                -0.038181789219379425,
                0.9991742372512817
            ],
            "scale" : [
                1.3698729276657104,
                1.3698729276657104,
                1.3698724508285522
            ],
            "translation" : [
                0.23983049392700195,
                1.788012981414795,
                -0.11324727535247803
            ]
        },
        {
            "mesh" : 1,
            "name" : "Cube.001",
            "rotation" : [
                0.04193452000617981,
                0.16450589895248413,
                -0.106560617685318,
                0.9797061681747437
            ],
            "scale" : [
                2.3218538761138916,
                1.3332661390304565,
                1.2108041048049927
            ],
            "translation" : [
                4.303548336029053,
                10.482973098754883,
                1.8635034561157227
            ]
        },
        {
            "mesh" : 2,
            "name" : "Cube.003",
            "rotation" : [
                -0.039090193808078766,
                0.7299333810806274,
                -0.00952191837131977,
                0.6823331713676453
            ],
            "scale" : [
                4.48811674118042,
                2.879599094390869,
                2.416442632675171
            ],
            "translation" : [
                -1.7859835624694824,
                15.159454345703125,
                -2.4730658531188965
            ]
        }
    ],
    "materials" : [
        {
            "doubleSided" : true,
            "name" : "Tree",
            "pbrMetallicRoughness" : {
                "baseColorFactor" : [
                    0.5595985054969788,
                    0.3760286867618561,
                    0.15880925953388214,
                    1
                ],
                "metallicFactor" : 0
            }
        },
        {
            "doubleSided" : true,
            "name" : "Leafs",
            "pbrMetallicRoughness" : {
                "baseColorFactor" : [
                    0.010791338980197906,
                    0.3757477104663849,
                    0,
                    1
                ],
                "metallicFactor" : 0,
                "roughnessFactor" : 0.9411765336990356
            }
        }
    ],
    "meshes" : [
        {
            "name" : "Cube.001",
            "primitives" : [
                {
                    "attributes" : {
                        "POSITION" : 0,
                        "NORMAL" : 1,
                        "TEXCOORD_0" : 2
                    },
                    "indices" : 3,
                    "material" : 0
                }
            ]
        },
        {
            "name" : "Cube.002",
            "primitives" : [
                {
                    "attributes" : {
                        "POSITION" : 4,
                        "NORMAL" : 5,
                        "TEXCOORD_0" : 6
                    },
                    "indices" : 7,
                    "material" : 1
                }
            ]
        },
        {
            "name" : "Cube.004",
            "primitives" : [
                {
                    "attributes" : {
                        "POSITION" : 8,
                        "NORMAL" : 9,
                        "TEXCOORD_0" : 10
                    },
                    "indices" : 11,
                    "material" : 1
                }
            ]
        }
    ],
    "accessors" : [
        {
            "bufferView" : 0,
            "componentType" : 5126,
            "count" : 658,
            "max" : [
                3.7542788982391357,
                7.662839889526367,
                2.326460361480713
            ],
            "min" : [
                -3.2946183681488037,
                -1.4088034629821777,
                -2.9275312423706055
            ],
            "type" : "VEC3"
        },
        {
            "bufferView" : 1,
            "componentType" : 5126,
            "count" : 658,
            "type" : "VEC3"
        },
        {
            "bufferView" : 2,
            "componentType" : 5126,
            "count" : 658,
            "type" : "VEC2"
        },
        {
            "bufferView" : 3,
            "componentType" : 5123,
            "count" : 984,
            "type" : "SCALAR"
        },
        {
            "bufferView" : 4,
            "componentType" : 5126,
            "count" : 216,
            "max" : [
                1.2218964099884033,
                1.4428400993347168,
                1.3978830575942993
            ],
            "min" : [
                -1.4453810453414917,
                -1.0795931816101074,
                -1.8290983438491821
            ],
            "type" : "VEC3"
        },
        {
            "bufferView" : 5,
            "componentType" : 5126,
            "count" : 216,
            "type" : "VEC3"
        },
        {
            "bufferView" : 6,
            "componentType" : 5126,
            "count" : 216,
            "type" : "VEC2"
        },
        {
            "bufferView" : 7,
            "componentType" : 5123,
            "count" : 324,
            "type" : "SCALAR"
        },
        {
            "bufferView" : 8,
            "componentType" : 5126,
            "count" : 376,
            "max" : [
                1.8340214490890503,
                1.8336175680160522,
                4.080610752105713
            ],
            "min" : [
                -1.832035779953003,
                -1.463902235031128,
                -3.426797389984131
            ],
            "type" : "VEC3"
        },
        {
            "bufferView" : 9,
            "componentType" : 5126,
            "count" : 376,
            "type" : "VEC3"
        },
        {
            "bufferView" : 10,
            "componentType" : 5126,
            "count" : 376,
            "type" : "VEC2"
        },
        {
            "bufferView" : 11,
            "componentType" : 5123,
            "count" : 564,
            "type" : "SCALAR"
        }
    ],
    "bufferViews" : [
        {
            "buffer" : 0,
            "byteLength" : 7896,
            "byteOffset" : 0
        },
        {
            "buffer" : 0,
            "byteLength" : 7896,
            "byteOffset" : 7896
        },
        {
            "buffer" : 0,
            "byteLength" : 5264,
            "byteOffset" : 15792
        },
        {
            "buffer" : 0,
            "byteLength" : 1968,
            "byteOffset" : 21056
        },
        {
            "buffer" : 0,
            "byteLength" : 2592,
            "byteOffset" : 23024
        },
        {
            "buffer" : 0,
            "byteLength" : 2592,
            "byteOffset" : 25616
        },
        {
            "buffer" : 0,
            "byteLength" : 1728,
            "byteOffset" : 28208
        },
        {
            "buffer" : 0,
            "byteLength" : 648,
            "byteOffset" : 29936
        },
        {
            "buffer" : 0,
            "byteLength" : 4512,
            "byteOffset" : 30584
        },
        {
            "buffer" : 0,
            "byteLength" : 4512,
            "byteOffset" : 35096
        },
        {
            "buffer" : 0,
            "byteLength" : 3008,
            "byteOffset" : 39608
        },
        {
            "buffer" : 0,
            "byteLength" : 1128,
            "byteOffset" : 42616
        }
    ],
    "buffers" : [
        {
            "byteLength" : 43744,
            "uri" : "data:application/octet-stream;base64,"
        }
    ]
}
