{
  "accessors": [
    {
      "bufferView": 2,
      "componentType": 5126,
      "count": 2170,
      "max": [
        11.832026481628418,
        9.772665023803711,
        12.365718841552734
      ],
      "min": [
        -12.51499080657959,
        -2.827158212661743,
        -12.356882095336914
      ],
      "type": "VEC3"
    },
    {
      "bufferView": 2,
      "byteOffset": 26040,
      "componentType": 5126,
      "count": 2170,
      "max": [
        1.0,
        0.8187676072120667,
        0.9997659921646118
      ],
      "min": [
        -0.9989209771156311,
        -0.9879258871078491,
        -0.9997660517692566
      ],
      "type": "VEC3"
    },
    {
      "bufferView": 1,
      "componentType": 5126,
      "count": 2170,
      "max": [
        0.9999880194664001,
        0.6555500030517578
      ],
      "min": [
        0.0,
        0.0
      ],
      "type": "VEC2"
    },
    {
      "bufferView": 0,
      "componentType": 5125,
      "count": 9126,
      "type": "SCALAR"
    },
    {
      "bufferView": 2,
      "byteOffset": 52080,
      "componentType": 5126,
      "count": 324,
      "max": [
        11.040042877197266,
        4.096181392669678,
        11.464402198791504
      ],
      "min": [
        -11.709702491760254,
        2.430833578109741,
        -11.515568733215332
      ],
      "type": "VEC3"
    },
    {
      "bufferView": 2,
      "byteOffset": 55968,
      "componentType": 5126,
      "count": 324,
      "max": [
        0.8922134637832642,
        -0.1862003356218338,
        0.9708737134933472
      ],
      "min": [
        -0.9673076272010803,
        -0.2398078590631485,
        -0.9467852711677551
      ],
      "type": "VEC3"
    },
    {
      "bufferView": 1,
      "byteOffset": 17360,
      "componentType": 5126,
      "count": 324,
      "max": [
        0.9753773808479309,
        0.99853515625
      ],
      "min": [
        0.7075642347335815,
        0.5961375832557678
      ],
      "type": "VEC2"
    },
    {
      "bufferView": 0,
      "byteOffset": 36504,
      "componentType": 5125,
      "count": 918,
      "type": "SCALAR"
    },
    {
      "bufferView": 2,
      "byteOffset": 59856,
      "componentType": 5126,
      "count": 2736,
      "max": [
        11.040042877197266,
        4.626837730407715,
        11.464402198791504
      ],
      "min": [
        -11.709702491760254,
        2.0752310752868652,
        -11.515568733215332
      ],
      "type": "VEC3"
    },
    {
      "bufferView": 2,
      "byteOffset": 92688,
      "componentType": 5126,
      "count": 2736,
      "max": [
        0.9816755056381226,
        0.6837319731712341,
        0.9964849948883057
      ],
      "min": [
        -0.9981286525726318,
        -0.7302339673042297,
        -0.9863967299461365
      ],
      "type": "VEC3"
    },
    {
      "bufferView": 1,
      "byteOffset": 19952,
      "componentType": 5126,
      "count": 2736,
      "max": [
        0.9658987522125244,
        0.9752897024154663
      ],
      "min": [
        0.004287033341825008,
        0.0
      ],
      "type": "VEC2"
    },
    {
      "bufferView": 0,
      "byteOffset": 40176,
      "componentType": 5125,
      "count": 7503,
      "type": "SCALAR"
    },
    {
      "bufferView": 2,
      "byteOffset": 125520,
      "componentType": 5126,
      "count": 2970,
      "max": [
        12.625951766967773,
        12.416779518127441,
        12.937447547912598
      ],
      "min": [
        -12.97252082824707,
        8.745885848999023,
        -12.817265510559082
      ],
      "type": "VEC3"
    },
    {
      "bufferView": 2,
      "byteOffset": 161160,
      "componentType": 5126,
      "count": 2970,
      "max": [
        0.9992125630378723,
        0.9983304738998413,
        0.9998703598976135
      ],
      "min": [
        -0.9989051222801208,
        -0.9713419675827026,
        -0.9998220801353455
      ],
      "type": "VEC3"
    },
    {
      "bufferView": 1,
      "byteOffset": 41840,
      "componentType": 5126,
      "count": 2970,
      "max": [
        0.0,
        0.0
      ],
      "min": [
        0.0,
        0.0
      ],
      "type": "VEC2"
    },
    {
      "bufferView": 0,
      "byteOffset": 70188,
      "componentType": 5125,
      "count": 16122,
      "type": "SCALAR"
    }
  ],
  "asset": {
    "extras": {
      "author": "ipekns (https://sketchfab.com/ipekns)",
      "license": "CC-BY-4.0 (http://creativecommons.org/licenses/by/4.0/)",
      "source": "https://sketchfab.com/3d-models/king-crown-6ba42a25bbae40b4a790f8a80d0efb5e",
      "title": "King Crown"
    },
    "generator": "Sketchfab-14.35.0",
    "version": "2.0"
  },
  "bufferViews": [
    {
      "buffer": 0,
      "byteLength": 134676,
      "name": "floatBufferViews",
      "target": 34963
    },
    {
      "buffer": 0,
      "byteLength": 65600,
      "byteOffset": 134676,
      "byteStride": 8,
      "name": "floatBufferViews",
      "target": 34962
    },
    {
      "buffer": 0,
      "byteLength": 196800,
      "byteOffset": 200276,
      "byteStride": 12,
      "name": "floatBufferViews",
      "target": 34962
    }
  ],
  "buffers": [
    {
      "byteLength": 397076,
      "uri": "scene.bin"
    }
  ],
  "materials": [
    {
      "doubleSided": true,
      "name": "Material.004",
      "pbrMetallicRoughness": {
        "baseColorFactor": [
          1.0,
          0.644464,
          0.0,
          1.0
        ],
        "metallicFactor": 0.0,
        "roughnessFactor": 0.8493962036089167
      }
    },
    {
      "doubleSided": true,
      "name": "Material.006",
      "pbrMetallicRoughness": {
        "baseColorFactor": [
          1.0,
          0.0,
          0.0,
          1.0
        ],
        "metallicFactor": 0.0,
        "roughnessFactor": 0.9524611947983544
      }
    },
    {
      "doubleSided": true,
      "name": "Material.005",
      "pbrMetallicRoughness": {
        "baseColorFactor": [
          0.69206,
          0.000322734,
          0.000322734,
          1.0
        ],
        "metallicFactor": 0.0,
        "roughnessFactor": 0.9670434713446421
      }
    },
    {
      "doubleSided": true,
      "name": "Material.007",
      "pbrMetallicRoughness": {
        "baseColorFactor": [
          0.934503,
          1.0,
          0.0,
          1.0
        ],
        "metallicFactor": 0.0,
        "roughnessFactor": 0.7956512621718617
      }
    }
  ],
  "meshes": [
    {
      "name": "king_Material.004_0",
      "primitives": [
        {
          "attributes": {
            "NORMAL": 1,
            "POSITION": 0,
            "TEXCOORD_0": 2
          },
          "indices": 3,
          "material": 0,
          "mode": 4
        }
      ]
    },
    {
      "name": "king_Material.006_0",
      "primitives": [
        {
          "attributes": {
            "NORMAL": 5,
            "POSITION": 4,
            "TEXCOORD_0": 6
          },
          "indices": 7,
          "material": 1,
          "mode": 4
        }
      ]
    },
    {
      "name": "king_Material.005_0",
      "primitives": [
        {
          "attributes": {
            "NORMAL": 9,
            "POSITION": 8,
            "TEXCOORD_0": 10
          },
          "indices": 11,
          "material": 2,
          "mode": 4
        }
      ]
    },
    {
      "name": "king_Material.007_0",
      "primitives": [
        {
          "attributes": {
            "NORMAL": 13,
            "POSITION": 12,
            "TEXCOORD_0": 14
          },
          "indices": 15,
          "material": 3,
          "mode": 4
        }
      ]
    }
  ],
  "nodes": [
    {
      "children": [
        1
      ],
      "matrix": [
        1.0,
        0.0,
        0.0,
        0.0,
        0.0,
        2.220446049250313e-16,
        -1.0,
        0.0,
        0.0,
        1.0,
        2.220446049250313e-16,
        0.0,
        0.0,
        0.0,
        0.0,
        1.0
      ],
      "name": "Sketchfab_model"
    },
    {
      "children": [
        2
      ],
      "matrix": [
        0.009999999776482582,
        0.0,
        0.0,
        0.0,
        0.0,
        0.0,
        0.009999999776482582,
        0.0,
        0.0,
        -0.009999999776482582,
        0.0,
        0.0,
        0.0,
        0.0,
        0.0,
        1.0
      ],
      "name": "King Crown.fbx"
    },
    {
      "children": [
        3
      ],
      "name": "RootNode"
    },
    {
      "children": [
        4,
        5,
        6,
        7
      ],
      "matrix": [
        100.0,
        0.0,
        0.0,
        0.0,
        0.0,
        99.99999999999866,
        1.6292067073209114e-05,
        0.0,
        0.0,
        -1.6292067073209114e-05,
        99.99999999999866,
        0.0,
        0.0,
        0.0,
        0.0,
        1.0
      ],
      "name": "king"
    },
    {
      "mesh": 0,
      "name": "king_Material.004_0"
    },
    {
      "mesh": 1,
      "name": "king_Material.006_0"
    },
    {
      "mesh": 2,
      "name": "king_Material.005_0"
    },
    {
      "mesh": 3,
      "name": "king_Material.007_0"
    }
  ],
  "scene": 0,
  "scenes": [
    {
      "name": "Sketchfab_Scene",
      "nodes": [
        0
      ]
    }
  ]
}
